<svg xmlns="http://www.w3.org/2000/svg" xmlns:svg="http://www.w3.org/2000/svg" xmlns:xlink="http://www.w3.org/1999/xlink" id="svg2" width="199.835" height="200.189" version="1.1" viewBox="0 0 56.398 56.498" xml:space="preserve" style="fill-rule:evenodd"><metadata id="metadata26"/><defs id="defs4"><linearGradient id="linearGradient3818"><stop id="stop3820" offset="0" style="stop-color:#fff;stop-opacity:1"/></linearGradient><style id="style6" type="text/css"/><linearGradient id="id0" x1="143.791" x2="143.791" y1="114.559" y2="76.617" gradientUnits="userSpaceOnUse"><stop id="stop9" offset="0" style="stop-color:#63ba70;stop-opacity:1"/><stop id="stop11" offset="1" style="stop-color:#1da838;stop-opacity:1"/></linearGradient><linearGradient id="id1" x1="165.313" x2="165.313" y1="114.671" y2="76.626" gradientTransform="matrix(3.884322,0,0,3.8868143,-500.18215,269.76173)" gradientUnits="userSpaceOnUse"><stop id="stop14" offset="0" style="stop-color:#6aa3d5;stop-opacity:1"/><stop id="stop16" offset="1" style="stop-color:#5076b1;stop-opacity:1"/></linearGradient><linearGradient id="linearGradient3015" x1="143.791" x2="143.791" y1="114.559" y2="76.617" gradientTransform="matrix(3.884322,0,0,3.8868143,-500.18215,269.76173)" gradientUnits="userSpaceOnUse" xlink:href="#id0"/><linearGradient id="linearGradient3824" x1="128.791" x2="180.237" y1="96.284" y2="96.284" gradientUnits="userSpaceOnUse" xlink:href="#linearGradient3818"/><linearGradient id="linearGradient3826" x1="128.791" x2="180.237" y1="96.284" y2="96.284" gradientUnits="userSpaceOnUse" xlink:href="#linearGradient3818"/><linearGradient id="linearGradient3828" x1="128.791" x2="180.237" y1="96.284" y2="96.284" gradientUnits="userSpaceOnUse" xlink:href="#linearGradient3818"/></defs><g id="g3013" transform="translate(-0.02323218,-153.50231)"><g id="Ebene_x0020_1-3" transform="matrix(1.0808301,0,0,1.0815238,-138.87091,77.603645)" style="fill:url(#linearGradient3828);fill-opacity:1;fill-rule:evenodd;stroke:none"><metadata id="CorelCorpID_0Corel-Layer-4"/><g id="_109026384-7" style="fill:url(#linearGradient3826);fill-opacity:1;stroke:none"><rect id="_109026408-4" width="49.446" height="49.505" x="129.791" y="71.532" rx="10.238" ry="10.238" style="fill:url(#linearGradient3824);fill-opacity:1;stroke:none"/></g></g><g id="Ebene_x0020_1" transform="matrix(1.096242,0,0,1.0969454,-141.16252,76.132755)"><metadata id="CorelCorpID_0Corel-Layer"/><g id="_109026384"><path id="_109026552" d="m 104.65625,567.59375 0.0312,52.59375 c 11.21129,2.18729 19.6875,12.05484 19.6875,23.90625 0,9.52351 -5.47354,17.77375 -13.4375,21.78125 l 21.4375,49.59375 c 26.95758,-11.66705 46.02318,-38.30738 46.53125,-69.625 0.34609,-21.32229 -7.97757,-40.78437 -21.71875,-55 -14.13777,-14.05045 -30.79575,-23.05916 -52.53125,-23.25 z" transform="matrix(0.25744519,0,0,0.25728011,128.76949,-69.404326)" style="fill:url(#id1)"/><path id="_109026480" d="m 95.71875,567.5625 c -21.779005,0.0443 -38.486632,8.92895 -52.65625,22.84375 -13.741566,14.21563 -22.064843,33.67733 -21.71875,55 0.508069,31.31762 19.573667,57.95795 46.53125,69.625 l 21.21875,-49.125 C 81.109585,661.90575 75.625,653.6321 75.625,644.09375 c 0,-11.94098 8.599928,-21.88234 19.9375,-23.96875 l 0.15625,-52.5625 z" transform="matrix(0.25744519,0,0,0.25728011,128.76949,-69.404326)" style="fill:url(#linearGradient3015)"/><rect id="_109026408" width="49.446" height="49.505" x="129.791" y="71.532" rx="10.238" ry="10.238" style="fill:none;stroke:#5076b1;stroke-width:2"/></g></g></g></svg>